<?xml version="1.0" encoding="UTF-8"?>
<svg id="Layer_1" xmlns="http://www.w3.org/2000/svg" xmlns:xlink="http://www.w3.org/1999/xlink" version="1.1" viewBox="0 0 559 334">
  <!-- Generator: Adobe Illustrator 30.2.1, SVG Export Plug-In . SVG Version: 2.1.1 Build 1)  -->
  <defs>
    <style>
      .st0 {
        mask: url(#mask);
      }

      .st1 {
        fill: #d9d9d9;
        fill-opacity: .69;
      }

      .st2 {
        fill: url(#linear-gradient);
      }

      .st3 {
        fill: #fff;
        fill-opacity: .1;
      }
    </style>
    <linearGradient id="linear-gradient" x1="279.5" y1="263.5" x2="279.5" y2="-267" gradientTransform="translate(0 336) scale(1 -1)" gradientUnits="userSpaceOnUse">
      <stop offset="0" stop-color="#000e54"/>
      <stop offset="1" stop-color="#666"/>
    </linearGradient>
    <mask id="mask" x="-10" y="-83" width="578.01" height="578.02" maskUnits="userSpaceOnUse">
      <g id="mask0_114_12">
        <rect class="st1" width="559" height="334" rx="10" ry="10"/>
      </g>
    </mask>
  </defs>
  <rect class="st2" width="559" height="334" rx="10" ry="10"/>
  <g class="st0">
    <g>
      <path class="st3" d="M340.5,23.21c3.56,0,6.46-2.9,6.46-6.45s-2.9-6.45-6.46-6.45-6.45,2.9-6.45,6.45,2.89,6.45,6.45,6.45ZM340.5,11.9c2.68,0,4.85,2.17,4.85,4.85s-2.17,4.85-4.85,4.85-4.85-2.17-4.85-4.85,2.17-4.85,4.85-4.85Z"/>
      <path class="st3" d="M568-43.85v-1.61h-191.1v-37.55h-1.61v37.55h-16.19v-37.55h-1.6V10.36c-3.18.4-5.65,3.11-5.65,6.4,0,3.56,2.9,6.45,6.45,6.45s6.45-2.9,6.45-6.45c0-3.29-2.47-6-5.65-6.4V-12.44h16.19V30.54c-3.18.4-5.65,3.11-5.65,6.4s2.47,6,5.65,6.4v82.85h-16.19V23.22h-1.6v102.98h-16.19V23.22h-1.61v102.98h-14.85V43.35c3.18-.4,5.65-3.11,5.65-6.4,0-3.56-2.9-6.45-6.45-6.45s-6.45,2.9-6.45,6.45c0,3.29,2.47,6,5.65,6.4v134.55h-64.8V-83h-1.61V92.8h-16.19V-83h-1.6V75h-16.19V-83h-1.6V57.2h-16.6V-51.77c3.18-.4,5.65-3.11,5.65-6.4,0-3.56-2.9-6.45-6.45-6.45s-6.46,2.9-6.46,6.45c0,3.29,2.47,6,5.65,6.4V57.2h-82.93V-6.85c3.18-.4,5.65-3.11,5.65-6.4s-2.47-6-5.65-6.4v-63.35h-1.61V-19.64c-2.92.36-5.23,2.68-5.6,5.6h-10.6v-9.62c3.18-.4,5.65-3.11,5.65-6.4s-2.47-6-5.65-6.4v-46.53h-1.61v46.53c-2.92.36-5.23,2.68-5.6,5.6h-10.6v-7.39c3.15-.43,5.58-3.13,5.58-6.39s-2.47-6-5.65-6.4v-31.95h-1.61v31.96c-2.92.36-5.23,2.68-5.6,5.6H-10v1.61h87.25c.37,2.94,2.72,5.27,5.67,5.61v7.37H-10v1.61h92.92v15.22H-10v1.61h92.92V57.21h-46.76c-.4-3.18-3.11-5.65-6.4-5.65s-6,2.47-6.4,5.65H-10v1.61H23.36c.4,3.18,3.11,5.65,6.4,5.65s6-2.47,6.4-5.65h46.76v16.19h-23.59c-.4-3.18-3.11-5.65-6.4-5.65s-6,2.47-6.4,5.65H-10v1.61h56.53c.4,3.18,3.11,5.65,6.4,5.65s6-2.47,6.4-5.65h23.59v183.85h-23.87v-82.55H-10v1.61H57.44v82.55h25.48v16.19h-42.03v-82.56H-10v1.61h49.29v82.56h43.63v16.19H23.86v-82.56H-10v1.61H22.25v82.56h60.67v120.89h-27.67c-.4-3.18-3.11-5.65-6.4-5.65s-6,2.47-6.4,5.65H-10v1.61h52.44c.4,3.18,3.11,5.65,6.4,5.65s6-2.47,6.4-5.65h27.67v16.01h-50.49c-.4-3.18-3.11-5.65-6.4-5.65s-6,2.47-6.4,5.65H-10v1.61h29.63c.4,3.18,3.11,5.65,6.4,5.65s6-2.47,6.4-5.65h50.49v16.01H-10v1.61h92.92v39.61h1.61v-39.61h16.19v39.61h1.61v-39.61h16.19v39.61h1.6v-39.61h51.26v14.06c-3.18.4-5.65,3.11-5.65,6.4,0,3.56,2.89,6.45,6.45,6.45s6.45-2.9,6.45-6.45c0-3.29-2.47-6.01-5.65-6.4v-15.67h-52.87v-16.01h101.14v57.23h1.6v-57.23h16.19v57.23h1.61v-161.74h16.19v161.74h1.61v-161.74h64.8v45.92c-3.18.4-5.65,3.11-5.65,6.4,0,3.56,2.9,6.46,6.45,6.46s6.45-2.9,6.45-6.46c0-3.29-2.47-6-5.65-6.4v-45.92h14.85v21.02c-3.18.4-5.65,3.12-5.65,6.4,0,3.56,2.89,6.45,6.45,6.45s6.46-2.89,6.46-6.45c0-3.29-2.47-6-5.65-6.4v-21.02h54.39v85.29h-38.19v76.45h1.6v-74.84h38.19v-86.9h16.19v102.91h-38.19v58.83h1.61v-57.23h38.19v-104.52h60.04v114.92c-3.18.4-5.65,3.11-5.65,6.4,0,3.56,2.89,6.45,6.45,6.45,3.29,0,6-2.47,6.4-5.65h85.67v-1.61h-85.67c-.36-2.92-2.68-5.23-5.6-5.6v-114.92h16.19v97.31c-3.18.4-5.65,3.11-5.65,6.4,0,3.56,2.89,6.46,6.45,6.46,3.29,0,6-2.47,6.4-5.65h67.87v-1.61h-67.87c-.36-2.92-2.68-5.23-5.6-5.6v-97.31h16.19v79.69c-3.18.4-5.65,3.12-5.65,6.4,0,3.56,2.9,6.45,6.45,6.45,3.29,0,6-2.47,6.4-5.65h50.08v-1.61h-50.08c-.36-2.92-2.68-5.23-5.6-5.6v-197.86h55.67v-1.6h-55.67v-16.2h55.67v-1.61h-55.67v-16.19h55.67v-1.61h-191.1v-14.49h92.59c0,.09-.02.18-.02.27,0,3.56,2.89,6.45,6.45,6.45s6.45-2.89,6.45-6.45-2.89-6.45-6.45-6.45c-2.91,0-5.37,1.93-6.18,4.58h-92.86v-16.19h128.39c.4,3.18,3.12,5.65,6.4,5.65,3.56,0,6.45-2.9,6.45-6.46s-2.9-6.45-6.45-6.45c-3.29,0-6,2.47-6.4,5.65h-128.39v-16.19h110.43c.4,3.18,3.11,5.65,6.4,5.65,3.56,0,6.46-2.9,6.46-6.45s-2.9-6.45-6.46-6.45c-3.29,0-6,2.47-6.4,5.65h-110.43V43.36c3.18-.4,5.65-3.11,5.65-6.4s-2.47-6-5.65-6.4V-12.43h53.56v89.04h137.54v-1.61h-135.93V-12.43h17.97V58.82h117.96v-1.61h-116.36V-12.43h116.36v-1.61h-116.36v-15.22h116.36v-1.61h-116.36v-12.98h116.36v-.02ZM363.15,16.75c0,2.68-2.17,4.85-4.85,4.85s-4.85-2.17-4.85-4.85,2.17-4.85,4.85-4.85,4.85,2.17,4.85,4.85ZM29.76,62.85c-2.68,0-4.85-2.17-4.85-4.85s2.17-4.85,4.85-4.85,4.85,2.17,4.85,4.85-2.17,4.85-4.85,4.85ZM52.93,80.65c-2.68,0-4.85-2.17-4.85-4.85s2.17-4.85,4.85-4.85,4.85,2.17,4.85,4.85-2.17,4.85-4.85,4.85ZM48.84,424.21c-2.68,0-4.85-2.17-4.85-4.85s2.17-4.85,4.85-4.85,4.85,2.17,4.85,4.85-2.17,4.85-4.85,4.85ZM26.02,441.82c-2.68,0-4.85-2.17-4.85-4.85s2.17-4.85,4.85-4.85,4.85,2.17,4.85,4.85-2.17,4.85-4.85,4.85ZM177.03,475.85c0,2.68-2.17,4.85-4.85,4.85s-4.85-2.17-4.85-4.85,2.17-4.85,4.85-4.85,4.85,2.17,4.85,4.85ZM339.7,127.8v34h-14.85v-34h14.85ZM324.86,195.69v-16.19h14.85v16.19h-14.85ZM339.7,197.3v16.19h-14.85v-16.19h14.85ZM324.86,177.89v-14.49h14.85v14.49h-14.85ZM258.45,179.5h64.8v16.19h-64.8v-16.19ZM258.45,197.3h64.8v16.19h-64.8v-16.19ZM240.65,94.4h16.19v83.49h-16.19v-83.49ZM240.65,179.5h16.19v16.19h-16.19v-16.19ZM240.65,197.3h16.19v16.19h-16.19v-16.19ZM222.86,76.6h16.19v16.19h-16.19v-16.19ZM222.86,94.4h16.19v83.49h-16.19v-83.49ZM239.05,179.5v16.19h-34.4v-16.19h34.4ZM221.25,94.4v83.49h-16.6v-83.49h16.6ZM204.65,92.8v-16.19h16.6v16.19h-16.6ZM221.25,58.8v16.19h-16.6v-16.19h16.6ZM199-58.16c0-2.68,2.17-4.85,4.85-4.85s4.85,2.17,4.85,4.85-2.17,4.85-4.85,4.85-4.85-2.17-4.85-4.85ZM203.05,58.8v16.19h-82.93v-16.19h82.93ZM203.05,76.6v16.19h-82.93v-16.19h82.93ZM83.65-39.8c-2.68,0-4.85-2.17-4.85-4.85s2.17-4.85,4.85-4.85,4.85,2.17,4.85,4.85-2.17,4.85-4.85,4.85ZM100.71,453.79h-16.19v-16.01h16.19v16.01ZM100.71,436.17h-16.19v-16.01h16.19v16.01ZM100.71,418.55h-16.19v-120.89h16.19v120.89ZM100.71,296.06h-16.19v-16.2h16.19v16.2ZM100.71,278.26h-16.19v-16.19h16.19v16.19ZM100.71,260.45h-16.19V76.6h16.19v183.85ZM100.71,75h-16.19v-16.19h16.19v16.19ZM100.71,57.2h-16.19V-12.45h16.19V57.2ZM100.71-14.05h-16.19v-15.22h10.6c.36,2.92,2.68,5.23,5.6,5.6v9.62h0ZM101.52-25.22c-2.68,0-4.85-2.17-4.85-4.85s2.17-4.85,4.85-4.85,4.85,2.17,4.85,4.85-2.17,4.85-4.85,4.85ZM118.51,453.79h-16.19v-16.01h16.19v16.01ZM118.51,436.17h-16.19v-16.01h16.19v16.01ZM118.51,418.55h-16.19v-120.89h16.19v120.89ZM118.51,296.06h-16.19v-16.2h16.19v16.2ZM118.51,278.26h-16.19v-16.19h16.19v16.19ZM118.51,260.45h-16.19V94.4h16.19v166.05ZM118.51,92.8h-16.19v-16.19h16.19v16.19ZM118.51,75h-16.19v-16.19h16.19v16.19ZM118.51,57.2h-16.19V-12.45h10.6c.36,2.92,2.68,5.23,5.6,5.6V57.2h0ZM119.31-8.4c-2.67,0-4.85-2.17-4.85-4.85s2.17-4.85,4.85-4.85,4.85,2.17,4.85,4.85-2.17,4.85-4.85,4.85ZM152.09,296.06h-31.97v-16.2h31.97v16.2ZM152.89,389.94c2.68,0,4.85,2.17,4.85,4.85s-2.17,4.85-4.85,4.85-4.85-2.17-4.85-4.85,2.17-4.85,4.85-4.85ZM221.25,436.17h-101.14v-16.01h101.14v16.01ZM239.05,436.17h-16.19v-16.01h16.19v16.01ZM240.65,331.65h-1.61v86.9h-118.93v-120.89h14.17v69.47c-3.18.4-5.65,3.12-5.65,6.4,0,3.56,2.9,6.45,6.46,6.45s6.45-2.89,6.45-6.45c0-3.29-2.47-6-5.65-6.4v-69.47h16.19v90.73c-3.18.4-5.65,3.12-5.65,6.4,0,3.56,2.9,6.45,6.46,6.45s6.45-2.89,6.45-6.45c0-3.29-2.47-6-5.65-6.4v-90.73h114.57c.4,3.18,3.11,5.65,6.4,5.65,3.56,0,6.45-2.9,6.45-6.45s-2.9-6.45-6.45-6.45c-3.29,0-6,2.47-6.4,5.65h-114.57v-16.19h93.41c.4,3.18,3.12,5.65,6.4,5.65,3.56,0,6.45-2.89,6.45-6.45s-2.89-6.46-6.45-6.46c-3.29,0-6,2.47-6.4,5.65h-126.98v-16.2h107.49c.4,3.18,3.11,5.65,6.4,5.65,3.56,0,6.45-2.9,6.45-6.45s-2.89-6.45-6.45-6.45c-3.29,0-6,2.47-6.4,5.65h-107.49V94.4h82.93v83.49h-59.64c-.4-3.18-3.11-5.64-6.39-5.64-3.56,0-6.46,2.9-6.46,6.45s2.9,6.46,6.46,6.46c3.29,0,6-2.48,6.4-5.66h59.64v16.19h-44.33c-.4-3.18-3.11-5.64-6.39-5.64-3.56,0-6.46,2.89-6.46,6.45s2.9,6.46,6.46,6.46c3.29,0,6-2.48,6.4-5.66h80.33v16.19h-60.47c-.4-3.18-3.11-5.65-6.4-5.65-3.56,0-6.45,2.9-6.45,6.45s2.9,6.45,6.45,6.45c3.29,0,6-2.47,6.4-5.65h144.68v116.56h-82.61ZM135.09,368.67c2.68,0,4.85,2.17,4.85,4.85s-2.17,4.85-4.85,4.85-4.85-2.17-4.85-4.85,2.17-4.85,4.85-4.85ZM269.81,296.86c0-2.68,2.17-4.85,4.85-4.85s4.85,2.17,4.85,4.85-2.17,4.85-4.85,4.85-4.85-2.17-4.85-4.85ZM248.64,279.06c0-2.68,2.17-4.85,4.85-4.85s4.85,2.17,4.85,4.85-2.17,4.85-4.85,4.85-4.85-2.17-4.85-4.85ZM229.16,261.26c0-2.68,2.17-4.85,4.85-4.85s4.85,2.17,4.85,4.85-2.17,4.85-4.85,4.85-4.85-2.17-4.85-4.85ZM141.85,178.71c0,2.68-2.17,4.85-4.85,4.85s-4.85-2.17-4.85-4.85,2.17-4.85,4.85-4.85,4.85,2.17,4.85,4.85ZM157.16,196.51c0,2.68-2.17,4.85-4.85,4.85s-4.85-2.17-4.85-4.85,2.17-4.85,4.85-4.85,4.85,2.17,4.85,4.85ZM177.03,214.29c0,2.68-2.17,4.85-4.85,4.85s-4.85-2.17-4.85-4.85,2.17-4.85,4.85-4.85,4.85,2.17,4.85,4.85ZM328.91,385.58c0,2.68-2.17,4.85-4.85,4.85s-4.85-2.17-4.85-4.85,2.17-4.85,4.85-4.85,4.85,2.17,4.85,4.85ZM324.06,41.79c-2.68,0-4.85-2.17-4.85-4.85s2.17-4.85,4.85-4.85,4.85,2.17,4.85,4.85-2.17,4.85-4.85,4.85ZM324.86,331.65v-116.56h14.85v116.56h-14.85ZM345.35,360.68c0,2.68-2.17,4.85-4.85,4.85s-4.85-2.17-4.85-4.85,2.17-4.85,4.85-4.85,4.85,2.17,4.85,4.85ZM341.31,127.8h16.19v16.19h-16.19v-16.19ZM341.31,145.6h16.19v16.2h-16.19v-16.2ZM341.31,163.4h16.19v14.49h-16.19v-14.49ZM341.31,179.5h16.19v16.19h-16.19v-16.19ZM341.31,197.3h16.19v16.19h-16.19v-16.19ZM341.31,215.1h16.19v98.76h-16.19v-98.76ZM375.3,331.65h-33.99v-16.2h33.99v16.2ZM375.3,313.86h-16.19v-98.76h16.19v98.76ZM375.3,213.49h-16.19v-16.19h16.19v16.19ZM375.3,195.69h-16.19v-16.19h16.19v16.19ZM375.3,177.89h-16.19v-14.49h16.19v14.49ZM375.3,161.79h-16.19v-16.2h16.19v16.2ZM375.3,143.99h-16.19v-16.19h16.19v16.19ZM516.37,419.36c0,2.68-2.17,4.85-4.85,4.85s-4.85-2.17-4.85-4.85,2.17-4.85,4.85-4.85,4.85,2.17,4.85,4.85ZM494.53,179.5h16.19v16.19h-16.19v-16.19ZM494.53,197.3h16.19v16.19h-16.19v-16.19ZM494.53,215.1h16.19v98.76h-16.19v-98.76ZM494.53,315.46h16.19v16.2h-16.19v-16.2ZM475.93,158.82c2.68,0,4.85,2.17,4.85,4.85s-2.17,4.85-4.85,4.85-4.85-2.17-4.85-4.85,2.17-4.85,4.85-4.85ZM511.69,139.95c2.68,0,4.85,2.17,4.85,4.85s-2.17,4.85-4.85,4.85-4.85-2.17-4.85-4.85,2.17-4.85,4.85-4.85ZM493.73,122.15c2.68,0,4.85,2.17,4.85,4.85s-2.17,4.85-4.85,4.85-4.85-2.17-4.85-4.85,2.17-4.85,4.85-4.85ZM359.1-43.85h16.19v12.98h-16.19v-12.98ZM359.1-14.05v-15.22h16.19v15.22h-16.19ZM413.49,331.65h-36.59v-16.2h36.59v16.2ZM376.9,313.86v-98.76h98.23v98.76h-98.23ZM415.09,331.65v-16.2h60.04v16.2h-60.04ZM480.78,454.59c0,2.68-2.17,4.85-4.85,4.85s-4.85-2.17-4.85-4.85,2.17-4.85,4.85-4.85,4.85,2.17,4.85,4.85ZM376.9,213.49v-16.19h116.02v16.19h-116.02ZM492.92,215.1v98.76h-16.19v-98.76h16.19ZM476.73,331.65v-16.2h16.19v16.2h-16.19ZM498.58,436.97c0,2.68-2.17,4.85-4.85,4.85s-4.85-2.17-4.85-4.85,2.17-4.85,4.85-4.85,4.85,2.17,4.85,4.85ZM492.92,179.5v16.19h-116.02v-16.19h116.02ZM380.95,36.94c0,2.68-2.17,4.85-4.85,4.85s-4.85-2.17-4.85-4.85,2.17-4.85,4.85-4.85,4.85,2.17,4.85,4.85ZM430.46-14.05h-53.56v-15.22h53.56v15.22ZM450.04-14.05h-17.97v-15.22h17.97v15.22ZM450.04-30.87h-73.14v-12.98h73.14v12.98Z"/>
    </g>
  </g>
</svg>